<?xml version="1.0" standalone="no"?>
<!DOCTYPE svg PUBLIC "-//W3C//DTD SVG 20010904//EN"
 "http://www.w3.org/TR/2001/REC-SVG-20010904/DTD/svg10.dtd">
<svg version="1.0" xmlns="http://www.w3.org/2000/svg"
 width="512.000000pt" height="512.000000pt" viewBox="0 0 512.000000 512.000000"
 preserveAspectRatio="xMidYMid meet">

<g transform="translate(0.000000,512.000000) scale(0.100000,-0.100000)"
fill="#000000" stroke="none">
<path d="M626 5029 c-62 -15 -153 -68 -197 -116 -22 -24 -55 -74 -72 -111
l-32 -67 -3 -240 c-3 -218 -5 -242 -22 -260 -30 -32 -60 -106 -60 -149 -1
-127 113 -246 236 -246 25 0 33 -8 60 -60 l31 -59 -51 -17 c-220 -72 -375
-241 -421 -460 -20 -93 -22 -1412 -3 -1478 8 -26 31 -60 63 -92 59 -59 117
-80 195 -71 l50 6 0 -550 c0 -524 -1 -552 -19 -577 -42 -60 -54 -105 -59 -229
-4 -120 -4 -122 21 -147 l26 -26 591 0 591 0 26 26 c25 25 25 27 21 147 -5
124 -17 169 -59 229 -18 25 -19 53 -19 576 l0 551 54 -6 c80 -8 145 17 199 77
24 26 49 66 55 88 19 63 16 1384 -3 1476 -46 219 -201 388 -421 460 l-51 17
31 59 c27 52 35 60 60 60 93 0 200 83 225 173 22 76 -5 186 -53 226 -13 11
-16 41 -16 184 0 101 -5 186 -12 209 -14 48 -76 120 -121 141 -24 12 -37 27
-47 56 -21 66 -79 131 -150 170 l-65 36 -270 2 c-148 1 -287 -3 -309 -8z m580
-175 c45 -33 64 -66 73 -124 10 -61 36 -90 83 -90 17 0 39 -10 53 -25 24 -23
25 -30 25 -142 l0 -119 -143 143 c-115 115 -148 143 -171 143 -43 0 -66 -18
-87 -68 -24 -56 -79 -116 -134 -145 -35 -19 -62 -22 -213 -27 -168 -5 -175 -6
-193 -29 -19 -23 -19 -22 -19 139 0 99 5 179 12 204 15 51 99 137 148 153 23
8 123 11 287 10 237 -2 253 -3 279 -23z m8 -503 l68 -68 -4 -184 -3 -184 -34
-63 c-38 -70 -70 -101 -145 -140 -43 -22 -64 -26 -136 -26 -78 -1 -90 2 -148
33 -69 37 -109 80 -144 151 -19 39 -23 65 -26 208 l-4 162 99 0 c163 0 280 44
361 137 21 22 39 42 42 42 3 1 36 -30 74 -68z m-734 -271 c0 -65 -3 -80 -15
-80 -27 0 -65 47 -65 80 0 33 38 80 65 80 12 0 15 -15 15 -80z m1015 55 c16
-15 25 -36 25 -55 0 -33 -38 -80 -65 -80 -12 0 -15 15 -15 80 0 90 11 100 55
55z m-841 -618 c84 -290 472 -319 596 -46 11 24 20 54 20 67 0 33 20 36 90 12
123 -41 214 -118 268 -227 39 -77 52 -143 52 -263 l0 -100 -135 0 c-131 0
-137 -1 -160 -25 l-25 -24 0 -336 0 -335 -400 0 -400 0 0 335 0 336 -25 24
c-23 24 -29 25 -160 25 l-135 0 0 100 c0 120 13 186 52 263 36 72 88 131 154
173 47 30 152 73 181 74 6 0 18 -24 27 -53z m306 8 c41 0 93 4 114 8 l40 9
-25 -34 c-14 -18 -41 -41 -60 -50 -68 -35 -148 -14 -198 50 l-25 34 40 -9 c21
-4 73 -8 114 -8z m-560 -1220 l0 -496 -25 -24 c-15 -16 -36 -25 -55 -25 -19 0
-40 9 -55 25 l-25 24 0 496 0 495 80 0 80 0 0 -495z m1280 0 l0 -496 -25 -24
c-15 -16 -36 -25 -55 -25 -19 0 -40 9 -55 25 l-25 24 0 496 0 495 80 0 80 0 0
-495z m-320 -985 l0 -760 -160 0 -160 0 0 680 0 680 -80 0 -80 0 0 -680 0
-680 -160 0 -160 0 0 760 0 760 400 0 400 0 0 -760z m-480 -1000 l0 -80 -200
0 -200 0 0 40 c0 22 7 58 16 80 l16 40 184 0 184 0 0 -80z m544 40 c9 -22 16
-58 16 -80 l0 -40 -200 0 -200 0 0 80 0 80 184 0 184 0 16 -40z"/>
<path d="M2500 5024 c-177 -38 -348 -171 -429 -334 -126 -257 -79 -545 124
-746 82 -81 199 -145 303 -165 l62 -13 0 -288 0 -288 -24 0 c-38 0 -162 -45
-224 -82 -31 -18 -89 -65 -129 -105 -227 -228 -244 -590 -39 -846 85 -105 225
-192 354 -218 l62 -13 0 -288 0 -288 -23 0 c-38 0 -147 -39 -216 -77 -36 -20
-95 -66 -131 -103 -252 -251 -252 -650 -1 -901 253 -253 652 -252 903 2 337
341 196 910 -261 1058 -35 12 -75 21 -88 21 l-23 0 0 289 0 288 41 7 c63 10
146 42 212 81 l61 36 247 -247 247 -247 -52 -76 c-221 -325 -104 -766 249
-936 246 -118 533 -69 725 124 254 255 254 647 0 902 -193 194 -481 243 -725
124 l-70 -34 -254 253 -254 254 37 58 c39 64 72 149 82 213 l7 41 247 0 248 0
7 -47 c18 -121 116 -284 222 -368 262 -207 620 -189 853 44 253 252 253 649 1
902 -233 233 -592 251 -854 44 -104 -83 -191 -224 -218 -353 l-13 -62 -247 0
-246 0 -7 41 c-10 64 -43 149 -82 213 l-37 58 254 254 254 253 72 -35 c217
-105 473 -78 672 72 159 119 262 346 247 542 -8 102 -22 155 -69 252 -56 120
-167 230 -287 288 -111 52 -174 67 -290 66 -112 -1 -198 -22 -290 -70 -343
-180 -453 -614 -236 -933 l54 -78 -247 -247 -247 -247 -61 36 c-66 39 -149 71
-212 81 l-41 7 0 286 0 287 62 13 c269 55 476 299 495 581 28 422 -360 754
-777 664z m257 -158 c176 -47 317 -196 354 -373 22 -107 -3 -246 -60 -340
l-20 -31 -53 52 c-29 28 -64 59 -78 68 -22 14 -23 19 -12 35 7 10 25 43 40 73
23 46 27 68 27 135 -1 95 -26 156 -90 221 -66 66 -125 89 -225 89 -102 0 -157
-22 -222 -87 -69 -69 -93 -127 -92 -228 0 -85 12 -123 67 -203 10 -16 8 -21
-13 -35 -14 -9 -49 -40 -78 -68 l-53 -52 -20 31 c-57 94 -82 233 -60 340 37
175 177 325 349 372 63 18 175 18 239 1z m-54 -240 c103 -43 128 -177 48 -257
-112 -113 -296 -12 -267 146 18 94 128 150 219 111z m1410 -161 c180 -47 320
-193 358 -372 22 -107 -3 -246 -60 -340 l-20 -31 -53 52 c-29 28 -64 59 -78
68 -22 14 -23 19 -12 35 7 10 25 43 40 73 23 46 27 68 27 135 -1 95 -26 156
-90 221 -66 66 -125 89 -225 89 -102 0 -157 -22 -222 -87 -69 -69 -93 -127
-92 -228 0 -85 12 -123 67 -203 10 -16 8 -21 -13 -35 -14 -9 -49 -40 -78 -68
l-53 -52 -20 31 c-34 57 -61 140 -66 212 -25 320 283 580 590 500z m-50 -239
c103 -43 128 -177 48 -257 -112 -113 -296 -12 -267 146 18 94 128 150 219 111z
m-1290 -99 c51 -23 137 -98 137 -118 0 -13 -93 -58 -157 -74 -73 -19 -153 -19
-226 0 -64 16 -157 61 -157 74 0 5 18 27 39 49 97 100 238 127 364 69z m1360
-400 c51 -23 137 -98 137 -118 0 -13 -93 -58 -157 -74 -73 -19 -153 -19 -226
0 -64 16 -157 61 -157 74 0 5 18 27 39 49 97 100 238 127 364 69z m-1378 -702
c238 -62 393 -291 358 -531 -30 -212 -196 -377 -409 -407 -329 -48 -612 266
-529 586 67 258 329 417 580 352z m1760 1 c178 -48 318 -195 356 -373 22 -107
-3 -246 -60 -340 l-20 -31 -53 52 c-29 28 -64 59 -78 68 -22 14 -23 19 -12 35
7 10 25 43 40 73 23 46 27 68 27 135 -1 95 -26 156 -90 221 -66 66 -125 89
-225 89 -102 0 -157 -22 -222 -87 -69 -69 -93 -127 -92 -228 0 -85 12 -123 67
-203 10 -16 8 -21 -13 -35 -14 -9 -49 -40 -78 -68 l-53 -52 -20 31 c-57 94
-82 233 -60 340 37 175 176 323 351 373 60 17 174 17 235 0z m-52 -240 c103
-43 128 -177 48 -257 -65 -65 -157 -65 -222 0 -124 123 13 325 174 257z m70
-499 c51 -23 137 -98 137 -118 0 -13 -93 -58 -157 -74 -73 -19 -153 -19 -226
0 -64 16 -157 61 -157 74 0 5 18 27 39 49 97 100 238 127 364 69z m-416 -701
c175 -47 317 -196 354 -373 22 -107 -3 -246 -60 -340 l-20 -31 -53 52 c-29 28
-64 59 -78 68 -22 14 -23 19 -12 35 7 10 25 43 40 73 23 46 27 68 27 135 -1
95 -26 156 -90 221 -66 66 -125 89 -225 89 -102 0 -157 -22 -222 -87 -69 -69
-93 -127 -92 -228 0 -85 12 -123 67 -203 10 -16 8 -21 -13 -35 -14 -9 -49 -40
-78 -68 l-53 -52 -20 31 c-57 94 -82 233 -60 340 37 175 177 325 349 372 63
18 175 18 239 1z m-54 -240 c103 -43 128 -177 48 -257 -65 -65 -157 -65 -222
0 -124 123 13 325 174 257z m-1306 -160 c175 -47 317 -196 354 -373 22 -107
-3 -246 -60 -340 l-20 -31 -53 52 c-29 28 -64 59 -78 68 -22 14 -23 19 -12 35
7 10 25 43 40 73 23 46 27 68 27 135 -1 95 -26 156 -90 221 -66 66 -125 89
-225 89 -102 0 -157 -22 -222 -87 -69 -69 -93 -127 -92 -228 0 -85 12 -123 67
-203 10 -16 8 -21 -13 -35 -14 -9 -49 -40 -78 -68 l-53 -52 -20 31 c-57 94
-82 233 -60 340 37 175 177 325 349 372 63 18 175 18 239 1z m-54 -240 c103
-43 128 -177 48 -257 -65 -65 -157 -65 -222 0 -124 123 13 325 174 257z m1430
-99 c51 -23 137 -98 137 -118 0 -13 -93 -58 -157 -74 -73 -19 -153 -19 -226 0
-64 16 -157 61 -157 74 0 5 18 27 39 49 97 100 238 127 364 69z m-1360 -400
c51 -23 137 -98 137 -118 0 -5 -22 -20 -50 -34 -106 -54 -225 -68 -333 -40
-64 16 -157 61 -157 74 0 5 18 27 39 49 97 100 238 127 364 69z"/>
<path d="M2560 2880 l0 -80 -55 0 c-68 0 -105 -29 -105 -81 0 -27 16 -48 102
-135 l102 -104 -102 0 -102 0 0 -80 0 -80 80 0 80 0 0 -80 0 -80 80 0 80 0 0
80 0 80 55 0 c68 0 105 29 105 81 0 27 -16 48 -102 135 l-102 104 102 0 102 0
0 80 0 80 -80 0 -80 0 0 80 0 80 -80 0 -80 0 0 -80z"/>
</g>
</svg>
