<?xml version="1.0" standalone="no"?>
<!DOCTYPE svg PUBLIC "-//W3C//DTD SVG 20010904//EN"
 "http://www.w3.org/TR/2001/REC-SVG-20010904/DTD/svg10.dtd">
<svg version="1.0" xmlns="http://www.w3.org/2000/svg"
 width="512.000000pt" height="512.000000pt" viewBox="0 0 512.000000 512.000000"
 preserveAspectRatio="xMidYMid meet">

<g transform="translate(0.000000,512.000000) scale(0.100000,-0.100000)"
fill="#000000" stroke="none">
<path d="M917 4788 c-10 -7 -220 -326 -467 -708 l-450 -695 0 -228 0 -228 25
-24 c20 -21 34 -25 80 -25 l55 0 0 -1255 0 -1256 25 -24 24 -25 296 0 295 0 0
80 0 80 -240 0 -240 0 0 1200 0 1200 2240 0 2240 0 0 -840 0 -840 80 0 80 0 0
840 0 840 55 0 c46 0 60 4 80 25 l25 24 0 225 0 226 -366 692 c-201 381 -375
701 -386 711 -19 16 -102 17 -1434 17 l-1414 0 0 -80 0 -80 1377 -2 1378 -3
314 -593 c172 -326 311 -595 309 -597 -3 -3 -1054 -4 -2336 -3 l-2332 3 387
598 386 597 179 0 178 0 0 80 0 80 -213 0 c-155 0 -218 -3 -230 -12z m4043
-1628 l0 -120 -2400 0 -2400 0 0 120 0 120 2400 0 2400 0 0 -120z"/>
<path d="M1552 4303 c-34 -31 -272 -439 -272 -467 0 -15 11 -38 25 -51 l24
-25 1231 0 1231 0 24 25 c14 13 25 36 25 51 0 28 -238 436 -272 467 -19 16
-82 17 -1008 17 -926 0 -989 -1 -1008 -17z m1995 -263 l72 -120 -1059 0 -1059
0 72 120 72 120 915 0 915 0 72 -120z"/>
<path d="M1905 2624 c-230 -57 -407 -248 -452 -484 -28 -155 4 -331 86 -457
46 -72 960 -1024 996 -1037 16 -6 34 -6 50 0 13 5 236 229 495 497 501 521
527 552 570 692 105 346 -98 709 -440 789 -202 48 -394 -12 -562 -174 l-90
-86 -61 63 c-131 137 -270 203 -437 209 -62 2 -116 -2 -155 -12z m238 -159
c96 -25 137 -52 264 -178 102 -100 127 -120 153 -120 25 0 51 20 154 122 92
89 140 128 181 147 258 118 538 -23 612 -309 29 -115 3 -262 -65 -364 -26 -39
-871 -923 -882 -923 -11 0 -856 884 -882 923 -68 102 -94 249 -64 366 64 250
295 397 529 336z"/>
<path d="M825 2135 l-25 -24 0 -591 0 -591 25 -24 24 -25 576 0 575 0 0 80 0
80 -520 0 -520 0 0 480 0 480 160 0 160 0 0 80 0 80 -215 0 c-216 0 -216 0
-240 -25z"/>
<path d="M3840 2080 l0 -80 160 0 160 0 0 -480 0 -480 -520 0 -520 0 0 -80 0
-80 575 0 576 0 24 25 25 24 0 591 0 591 -25 24 c-24 25 -24 25 -240 25 l-215
0 0 -80z"/>
<path d="M4800 760 l0 -280 -1920 0 -1920 0 0 -80 0 -80 1975 0 1976 0 24 25
25 24 0 336 0 335 -80 0 -80 0 0 -280z"/>
</g>
</svg>
