<?xml version="1.0" standalone="no"?>
<!DOCTYPE svg PUBLIC "-//W3C//DTD SVG 20010904//EN"
 "http://www.w3.org/TR/2001/REC-SVG-20010904/DTD/svg10.dtd">
<svg version="1.0" xmlns="http://www.w3.org/2000/svg"
 width="512.000000pt" height="512.000000pt" viewBox="0 0 512.000000 512.000000"
 preserveAspectRatio="xMidYMid meet">

<g transform="translate(0.000000,512.000000) scale(0.100000,-0.100000)"
fill="#000000" stroke="none">
<path d="M63 5100 c-62 -38 -63 -42 -63 -433 0 -383 2 -404 56 -474 13 -18 46
-45 72 -60 l47 -28 935 -5 935 -5 0 -255 0 -255 -731 -5 c-714 -5 -732 -5
-754 -25 -13 -11 -28 -33 -35 -50 -7 -16 -129 -787 -271 -1712 -255 -1663
-258 -1682 -241 -1717 9 -20 31 -45 49 -56 33 -20 55 -20 2498 -20 2443 0
2465 0 2498 20 18 11 40 36 49 56 17 35 14 54 -241 1717 -142 925 -264 1696
-271 1712 -7 17 -22 39 -35 50 -22 20 -40 20 -754 25 l-731 5 0 255 0 255 935
5 935 5 47 28 c26 15 59 42 72 60 54 70 56 91 56 474 0 391 -1 395 -63 433
-32 20 -70 20 -2497 20 -2427 0 -2465 0 -2497 -20z m4797 -495 l0 -255 -2300
0 -2300 0 0 255 0 255 2300 0 2300 0 0 -255z m-2045 -765 l0 -255 -255 0 -255
0 -3 245 c-1 134 0 250 3 257 3 11 59 13 257 11 l253 -3 0 -255z m1560 -542
c9 -55 465 -3022 465 -3030 0 -5 -1026 -8 -2280 -8 -1254 0 -2280 3 -2280 8 0
8 456 2975 465 3030 l6 32 1809 0 1809 0 6 -32z"/>
<path d="M2447 2809 c-344 -36 -653 -256 -807 -574 -70 -143 -91 -230 -97
-405 -4 -119 -1 -162 15 -240 67 -326 269 -581 576 -726 222 -105 502 -123
736 -47 338 110 589 376 682 721 29 111 36 331 13 443 -44 219 -137 391 -297
547 -164 161 -373 257 -609 282 -56 5 -109 9 -118 9 -9 -1 -51 -5 -94 -10z
m261 -265 c294 -60 521 -277 598 -569 26 -102 25 -275 -4 -378 -63 -222 -205
-394 -407 -492 -120 -59 -204 -78 -340 -77 -134 0 -232 24 -344 82 -196 102
-332 270 -392 485 -30 105 -32 277 -5 380 104 399 498 650 894 569z"/>
<path d="M2745 2151 c-16 -10 -91 -81 -166 -157 -146 -149 -160 -174 -139
-237 21 -66 89 -104 153 -86 23 6 79 56 190 167 155 157 157 159 157 203 0 49
-25 95 -62 115 -34 19 -99 17 -133 -5z"/>
</g>
</svg>
